
-: Cover :- 
 
http://desibbrg.net/imghost/show.php?img=430613_Dulhan.Ek.Raat.Ki.1967.DvDrip.1CD.X264.AAC.RRG.DADA..jpg.html
-: Screens :-
 
http://desibbrg.net/imghost/show.php?img=430604_Dulhan.Ek.Raat.Ki.1967.DvDrip.1CD.X264.AAC.RRG.DADA.DBBIANS.Com.mp4snapshot00.00.032013.03.3112.06.39.jpg.html
 
http://desibbrg.net/imghost/show.php?img=430605_Dulhan.Ek.Raat.Ki.1967.DvDrip.1CD.X264.AAC.RRG.DADA.DBBIANS.Com.mp4thumbs2013.03.3112.07.16.jpg.html


-: Info :-  

General

Format                           : MP4 Video
File size                        : 871 MiB
Duration                         : 2h 20mn
Overall bit rate                 : 869 Kbps
Video
Format                           : AVC
Format/Info                      : Advanced Video Codec
Format profile                   : Main@L3.0
Format settings, CABAC           : Yes
Format settings, ReFrames        : 3 frames
Duration                         : 2h 20mn
Bit rate                         : 732 Kbps
Width                            : 854 pixels
Height                           : 480 pixels
Display aspect ratio             : 16:9
Frame rate mode                  : Constant
Frame rate                       : 25.000 fps
Color space                      : YUV
Chroma subsampling               : 4:2:0
Bit depth                        : 8 bits
Scan type                        : Progressive
Bits/(Pixel*Frame)               : 0.071
Stream size                      : 734 MiB (84%)

Audio
Format                           : AAC
Format/Info                      : Advanced Audio Codec
Format version                   : Version 4
Format profile                   : LC
Format settings, SBR             : No
Duration                         : 2h 20mn
Bit rate                         : 129 Kbps
Channel(s)                       : 2 channels
Channel positions                : Front: L R
Sampling rate                    : 44.1 KHz
Bit depth                        : 16 bits
Stream size                      : 129 MiB (15%)


 
http://www.imdb.com/title/tt0212123/

    Genres:
Comedy, Family, Indian Cinema
    Language:
Hindi
    Running time:
2:20:13

    Released:
Jun 8, 1967


Cast & Crew
Cast

    Dharmendra
    Ashok Nutan
    Johnny Walker
    Rehman
    Kanhaiyalal
    Tabassum

Directors

    D.D. Kashyap


From the title, I suspected this might be a sad film. Then I discovered it was based on Thomas Hardy's "Tess of the D'Urbervilles" and knew it would be. I haven't read "Tess" since high school but I vividly remember that it doesn't end happily. Unless you enjoy tragedy, which I don't. ButΓÇöI thought there might be some hope that a Hindi film would give it a less dark twist, being as that happy endings are more their hallmark, especially in the 1960ΓÇ▓s. I also needed to get the Dharmendra-Nutan-Rehman bad taste from Dil Ne Phir Yaad Kiya out of my mouth! 
